<?xml version="1.0" encoding="UTF-8"?>
<svg width="284px" height="50px" viewBox="0 0 284 50" version="1.1" xmlns="http://www.w3.org/2000/svg" xmlns:xlink="http://www.w3.org/1999/xlink">
    <!-- Generator: Sketch 43.1 (39012) - http://www.bohemiancoding.com/sketch -->
    <title>Logo</title>
    <desc>Created with Sketch.</desc>
    <defs></defs>
    <g id="Welcome" stroke="none" stroke-width="1" fill="none" fill-rule="evenodd">
        <g id="Desktop-HD-Copy-2" transform="translate(-47.000000, -38.000000)">
            <g id="Logo" transform="translate(47.000000, 38.000000)">
                <g id="Page-1" fill="#FFFFFF">
                    <path d="M21.5994382,20.181236 L23.8058989,24.8582022 C24.2820225,25.8677528 25.7179775,25.8677528 26.194382,24.8582022 L28.4005618,20.181236 C28.8185393,19.2952809 29.7101124,18.7301124 30.6893258,18.7301124 L30.6893258,18.7301124 C32.5766854,18.7301124 33.8,20.7211236 32.947191,22.4045506 L27.3196629,33.5132584 C26.888764,34.3641011 26.0160112,34.9003371 25.0620787,34.9003371 L24.9379213,34.9003371 C23.9842697,34.9003371 23.111236,34.3641011 22.6803371,33.5132584 L17.0530899,22.4045506 C16.2002809,20.7211236 17.4233146,18.7301124 19.3106742,18.7301124 L19.3106742,18.7301124 C20.2901685,18.7301124 21.1814607,19.2952809 21.5994382,20.181236" id="Fill-1"></path>
                    <path d="M39.7008146,8.00199438 L39.7008146,8.00199438 C39.3488483,8.72867978 39.4775,9.60508427 40.0437921,10.180927 C44.1319944,14.3371067 46.5182303,20.1722191 46.0536236,26.5455337 C45.2932303,36.9854213 36.8255337,45.3727809 26.3791854,46.0404775 C13.6547472,46.8536798 3.12047753,36.319691 3.93311798,23.5955337 C4.60755618,13.0340169 13.1685112,4.52025281 23.7333989,3.89974719 C27.1741292,3.6975 30.4522191,4.32502809 33.3862079,5.60030899 C34.3421067,6.01575843 35.4539045,5.61800562 35.9083989,4.68008427 L35.9083989,4.68008427 C36.3836798,3.69946629 35.958118,2.51014045 34.9592416,2.07418539 C31.4291854,0.533174157 27.4789045,-0.217106742 23.3308708,0.0548033708 C10.8797472,0.870814607 0.838455056,10.9326124 0.0510955056,23.3854213 C-0.901713483,38.4567697 11.5932303,50.9314888 26.6710393,49.9452528 C39.1696348,49.1278371 49.2249719,38.9972191 49.9561517,26.4932865 C50.3890169,19.0955337 47.5819944,12.3331742 42.8252528,7.49160112 C41.8867697,6.53654494 40.2848034,6.7969382 39.7008146,8.00199438" id="Fill-3"></path>
                </g>
                <g id="Page-1" transform="translate(74.000000, 19.000000)" fill="#FEFEFE">
                    <path d="M3.90576,1.03926 L7.09596,9.15006 C7.37976,9.87126 8.40096,9.87126 8.68476,9.15006 L11.87496,1.03926 C12.00336,0.71286 12.31896,0.49806 12.66936,0.49806 L14.92596,0.49806 C15.53736,0.49806 15.95076,1.12146 15.71256,1.68426 L9.39156,16.62486 C9.25776,16.94046 8.94816,17.14566 8.60496,17.14566 L7.17576,17.14566 C6.83256,17.14566 6.52296,16.94046 6.38916,16.62486 L0.06816,1.68426 C-0.17004,1.12146 0.24336,0.49806 0.85476,0.49806 L3.11136,0.49806 C3.46236,0.49806 3.77736,0.71286 3.90576,1.03926" id="Fill-1"></path>
                    <path d="M24.7572,9.9507 L23.9166,7.6611 C23.643,6.9153 22.5876,6.9153 22.314,7.6611 L21.4734,9.9507 C21.2688,10.5081 21.6816,11.0985 22.275,11.0985 L23.9556,11.0985 C24.5496,11.0985 24.9618,10.5081 24.7572,9.9507 M25.6728,14.0157 L20.487,14.0157 C20.1402,14.0157 19.8282,14.2251 19.6968,14.5461 L18.8502,16.6155 C18.7188,16.9365 18.4068,17.1459 18.06,17.1459 L15.9174,17.1459 C15.3114,17.1459 14.898,16.5327 15.126,15.9711 L21.1914,1.0305 C21.3222,0.7089 21.6354,0.4983 21.9828,0.4983 L24.3834,0.4983 C24.7344,0.4983 25.0494,0.7125 25.1778,1.0395 L31.0518,15.9801 C31.272,16.5399 30.8592,17.1459 30.2574,17.1459 L28.0998,17.1459 C27.753,17.1459 27.4404,16.9365 27.3096,16.6155 L26.463,14.5461 C26.3316,14.2251 26.019,14.0157 25.6728,14.0157" id="Fill-4"></path>
                    <path d="M37.2021,7.18566 C37.2021,7.65726 37.5843,8.03946 38.0559,8.03946 L38.0559,8.03946 C38.7675,8.03946 39.6921,7.96806 40.3323,7.32786 C40.6173,7.04346 40.9725,6.54546 40.9725,5.69166 C40.9725,4.76646 40.5459,4.26846 40.1901,3.98406 C39.5499,3.48606 38.5539,3.48606 38.0559,3.48606 C37.5843,3.48606 37.2021,3.86826 37.2021,4.33986 L37.2021,7.18566 Z M39.1941,0.49806 C41.3283,0.49806 42.6801,1.20966 43.4631,1.92066 C44.1741,2.56146 44.8857,3.77046 44.8857,5.62026 C44.8857,6.68766 44.6721,7.96806 43.6053,9.03546 C43.2519,9.38886 42.7887,9.71466 42.2667,9.96246 C41.7807,10.19286 41.6289,10.81206 41.9523,11.24226 L45.3555,15.78006 C45.7773,16.34286 45.3759,17.14566 44.6721,17.14566 L42.1341,17.14566 C41.8527,17.14566 41.5893,17.00706 41.4297,16.77486 L38.7603,12.87606 C38.2863,12.18366 37.2021,12.51906 37.2021,13.35846 L37.2021,16.29246 C37.2021,16.76346 36.8199,17.14566 36.3483,17.14566 L34.2141,17.14566 C33.7425,17.14566 33.3603,16.76346 33.3603,16.29246 L33.3603,1.35186 C33.3603,0.88026 33.7425,0.49806 34.2141,0.49806 L39.1941,0.49806 Z" id="Fill-6"></path>
                    <path d="M52.4271,1.35174 L52.4271,16.29234 C52.4271,16.76394 52.0449,17.14614 51.5733,17.14614 L49.4391,17.14614 C48.9675,17.14614 48.5853,16.76394 48.5853,16.29234 L48.5853,1.35174 C48.5853,0.88014 48.9675,0.49794 49.4391,0.49794 L51.5733,0.49794 C52.0449,0.49794 52.4271,0.88014 52.4271,1.35174" id="Fill-8"></path>
                    <path d="M64.52724,9.9507 L63.68664,7.6611 C63.41304,6.9153 62.35764,6.9153 62.08404,7.6611 L61.24344,9.9507 C61.03884,10.5081 61.45164,11.0985 62.04504,11.0985 L63.72564,11.0985 C64.31964,11.0985 64.73184,10.5081 64.52724,9.9507 M65.44284,14.0157 L60.25704,14.0157 C59.91024,14.0157 59.59824,14.2251 59.46684,14.5461 L58.62024,16.6155 C58.48884,16.9365 58.17684,17.1459 57.83004,17.1459 L55.68744,17.1459 C55.08144,17.1459 54.66804,16.5327 54.89604,15.9711 L60.96144,1.0305 C61.09224,0.7089 61.40544,0.4983 61.75284,0.4983 L64.15344,0.4983 C64.50444,0.4983 64.81944,0.7125 64.94784,1.0395 L70.82184,15.9801 C71.04204,16.5399 70.62924,17.1459 70.02744,17.1459 L67.86984,17.1459 C67.52304,17.1459 67.21044,16.9365 67.07964,16.6155 L66.23304,14.5461 C66.10164,14.2251 65.78904,14.0157 65.44284,14.0157" id="Fill-10"></path>
                    <path d="M73.13028,16.29222 L73.13028,1.35162 C73.13028,0.88002 73.51248,0.49782 73.98408,0.49782 L76.07688,0.49782 C76.32888,0.49782 76.56768,0.60942 76.72968,0.80202 L84.00228,9.44922 C84.51528,10.05882 85.50948,9.69582 85.50948,8.89962 L85.50948,1.35162 C85.50948,0.88002 85.89168,0.49782 86.36328,0.49782 L88.49748,0.49782 C88.96908,0.49782 89.35128,0.88002 89.35128,1.35162 L89.35128,16.29222 C89.35128,16.76382 88.96908,17.14602 88.49748,17.14602 L86.40648,17.14602 C86.15388,17.14602 85.91388,17.03382 85.75128,16.83942 L78.48108,8.13762 C77.96928,7.52562 76.97208,7.88742 76.97208,8.68542 L76.97208,16.29222 C76.97208,16.76382 76.58988,17.14602 76.11828,17.14602 L73.98408,17.14602 C73.51248,17.14602 73.13028,16.76382 73.13028,16.29222" id="Fill-12"></path>
                    <path d="M98.88474,4.62444 L98.88474,16.36344 C98.88474,16.83504 98.50254,17.21724 98.03094,17.21724 L95.89674,17.21724 C95.42514,17.21724 95.04294,16.83504 95.04294,16.36344 L95.04294,4.62444 C95.04294,4.15284 94.66074,3.77064 94.18914,3.77064 L92.26854,3.77064 C91.79694,3.77064 91.41474,3.38844 91.41474,2.91684 L91.41474,1.35204 C91.41474,0.88044 91.79694,0.49824 92.26854,0.49824 L101.65914,0.49824 C102.13074,0.49824 102.51294,0.88044 102.51294,1.35204 L102.51294,2.91684 C102.51294,3.38844 102.13074,3.77064 101.65914,3.77064 L99.73854,3.77064 C99.26694,3.77064 98.88474,4.15284 98.88474,4.62444" id="Fill-14"></path>
                    <path d="M119.45112,3.78864 C119.19132,4.18344 118.66032,4.28664 118.26552,4.02744 C117.29592,3.39144 116.52132,3.34404 116.17272,3.34404 C115.67472,3.34404 114.96372,3.41484 114.53652,3.91284 C114.25212,4.19784 114.10992,4.55304 114.10992,4.98024 C114.10992,5.40684 114.25212,5.69184 114.46572,5.90484 C114.89232,6.26064 115.46172,6.40284 116.59992,6.83004 L117.88032,7.32804 C118.59192,7.61244 119.51652,7.96824 120.15672,8.60844 C121.15332,9.53364 121.36632,10.74264 121.36632,11.73924 C121.36632,13.44624 120.79752,14.94024 119.87232,15.86544 C118.37832,17.43024 116.24412,17.57304 115.17672,17.57304 C113.96712,17.57304 112.90032,17.43024 111.90432,16.86144 C111.28032,16.54944 110.58012,16.04724 110.02632,15.54984 C109.70412,15.26004 109.65672,14.77284 109.90932,14.42064 L110.91432,13.02084 C111.20652,12.61404 111.78312,12.54684 112.16412,12.87204 C112.46112,13.12584 112.77252,13.36344 113.04252,13.51764 C113.68272,13.94424 114.39432,14.08644 115.17672,14.08644 C115.67472,14.08644 116.38632,14.01564 116.95572,13.51764 C117.31092,13.23324 117.52452,12.80604 117.52452,12.16584 C117.52452,11.59644 117.31092,11.24064 116.95572,10.95624 C116.52852,10.60044 115.46172,10.17384 115.03452,10.03164 L113.68272,9.53364 C112.90032,9.24864 111.97512,8.89344 111.33492,8.18184 C110.48112,7.25664 110.33892,6.04764 110.33892,5.26464 C110.33892,3.77064 110.76612,2.56104 111.76212,1.49424 C112.97112,0.28464 114.32292,0.00024 115.88832,0.00024 C116.88432,0.00024 118.42512,0.16344 120.12972,1.15764 C120.54612,1.40064 120.66072,1.95204 120.39552,2.35464 L119.45112,3.78864 Z" id="Fill-16"></path>
                    <path d="M129.975,4.62444 L129.975,16.36344 C129.975,16.83504 129.5928,17.21724 129.1212,17.21724 L126.987,17.21724 C126.5154,17.21724 126.1332,16.83504 126.1332,16.36344 L126.1332,4.62444 C126.1332,4.15284 125.751,3.77064 125.2794,3.77064 L123.3588,3.77064 C122.8872,3.77064 122.505,3.38844 122.505,2.91684 L122.505,1.35204 C122.505,0.88044 122.8872,0.49824 123.3588,0.49824 L132.7494,0.49824 C133.221,0.49824 133.6032,0.88044 133.6032,1.35204 L133.6032,2.91684 C133.6032,3.38844 133.221,3.77064 132.7494,3.77064 L130.8288,3.77064 C130.3572,3.77064 129.975,4.15284 129.975,4.62444" id="Fill-19"></path>
                    <path d="M149.75334,10.38714 C149.75334,11.95254 149.53974,13.94454 147.90354,15.65214 C146.33814,17.28834 144.41754,17.57274 142.70994,17.57274 C140.93154,17.57274 139.08174,17.28834 137.51634,15.65214 C135.88014,13.94454 135.66654,11.95254 135.66654,10.38714 L135.66654,1.35174 C135.66654,0.88014 136.04874,0.49794 136.52034,0.49794 L138.65454,0.49794 C139.12614,0.49794 139.50834,0.88014 139.50834,1.35174 L139.50834,10.24494 C139.50834,10.95654 139.57974,12.16554 140.36214,13.01934 C141.00234,13.73094 141.92754,13.87314 142.70994,13.87314 C143.42154,13.87314 144.34614,13.73094 145.05774,13.01934 C145.91154,12.16554 145.91154,10.95654 145.91154,10.24494 L145.91154,1.35174 C145.91154,0.88014 146.29374,0.49794 146.76534,0.49794 L148.89954,0.49794 C149.37114,0.49794 149.75334,0.88014 149.75334,1.35174 L149.75334,10.38714 Z" id="Fill-21"></path>
                    <path d="M157.22352,13.09068 C157.22352,13.56228 157.60572,13.94448 158.07732,13.94448 L158.21952,13.94448 C159.00192,13.94448 160.78092,13.87308 161.98992,12.80628 C162.91512,12.02328 163.62672,10.60068 163.62672,8.75088 C163.62672,6.97248 162.91512,5.83368 162.27492,5.12268 C160.99392,3.84168 159.42912,3.69948 158.21952,3.69948 L158.07732,3.69948 C157.60572,3.69948 157.22352,4.08168 157.22352,4.55328 L157.22352,13.09068 Z M158.64612,0.49788 C160.85172,0.49788 163.19952,0.85368 165.19152,2.77488 C166.68552,4.19748 167.61072,6.11868 167.61072,8.75088 C167.61072,11.38308 166.68552,13.30428 165.33432,14.65608 C163.05732,17.00388 160.14072,17.14608 158.78892,17.14608 L154.23552,17.14608 C153.76392,17.14608 153.38172,16.76388 153.38172,16.29228 L153.38172,1.35168 C153.38172,0.88008 153.76392,0.49788 154.23552,0.49788 L158.64612,0.49788 Z" id="Fill-23"></path>
                    <path d="M174.44058,1.35174 L174.44058,16.29234 C174.44058,16.76394 174.05838,17.14614 173.58678,17.14614 L171.45258,17.14614 C170.98098,17.14614 170.59878,16.76394 170.59878,16.29234 L170.59878,1.35174 C170.59878,0.88014 170.98098,0.49794 171.45258,0.49794 L173.58678,0.49794 C174.05838,0.49794 174.44058,0.88014 174.44058,1.35174" id="Fill-25"></path>
                    <path d="M182.83572,5.12244 C182.12412,5.83404 181.34172,7.04364 181.34172,8.89284 C181.34172,10.38744 181.83972,11.66784 182.83572,12.66384 C183.90312,13.65984 185.11212,14.01564 186.39312,14.01564 C188.10072,14.01564 189.30972,13.37544 190.09272,12.59244 C190.73292,11.95224 191.51532,10.81404 191.51532,8.89284 C191.51532,7.21944 190.83192,5.95644 190.13472,5.16984 C190.10652,5.13744 190.07712,5.10804 190.04532,5.07924 C189.19152,4.31664 187.92972,3.69924 186.39312,3.69924 C185.04132,3.69924 183.68952,4.19784 182.83572,5.12244 M192.93852,2.56104 C194.50332,4.05504 195.57072,6.26064 195.57072,8.89284 C195.57072,11.09844 194.78832,13.37544 192.93852,15.15384 C191.37312,16.64784 189.30972,17.57304 186.46392,17.57304 C183.33372,17.57304 181.19952,16.29204 179.98992,15.15384 C178.42452,13.65984 177.35772,11.38344 177.35772,8.96424 C177.35772,6.54504 178.42452,4.12644 179.91852,2.63244 C181.05732,1.49424 183.12012,0.21324 186.46392,0.21324 C189.09672,0.14244 191.30172,0.92484 192.93852,2.56104" id="Fill-27"></path>
                    <path d="M207.52854,3.78864 C207.26874,4.18344 206.73774,4.28664 206.34294,4.02744 C205.37334,3.39144 204.59874,3.34404 204.25014,3.34404 C203.75214,3.34404 203.04114,3.41484 202.61394,3.91284 C202.32954,4.19784 202.18734,4.55304 202.18734,4.98024 C202.18734,5.40684 202.32954,5.69184 202.54314,5.90484 C202.96974,6.26064 203.53914,6.40284 204.67734,6.83004 L205.95774,7.32804 C206.66934,7.61244 207.59394,7.96824 208.23474,8.60844 C209.23074,9.53364 209.44374,10.74264 209.44374,11.73924 C209.44374,13.44624 208.87494,14.94024 207.94974,15.86544 C206.45574,17.43024 204.32154,17.57304 203.25414,17.57304 C202.04514,17.57304 200.97774,17.43024 199.98174,16.86144 C199.35774,16.54944 198.65754,16.04724 198.10374,15.54984 C197.78154,15.26004 197.73414,14.77284 197.98674,14.42064 L198.99174,13.02084 C199.28394,12.61404 199.86054,12.54684 200.24154,12.87204 C200.53854,13.12584 200.84994,13.36344 201.11994,13.51764 C201.76014,13.94424 202.47174,14.08644 203.25414,14.08644 C203.75214,14.08644 204.46374,14.01564 205.03314,13.51764 C205.38894,13.23324 205.60194,12.80604 205.60194,12.16584 C205.60194,11.59644 205.38894,11.24064 205.03314,10.95624 C204.60594,10.60044 203.53914,10.17384 203.11194,10.03164 L201.76014,9.53364 C200.97774,9.24864 200.05254,8.89344 199.41234,8.18184 C198.55854,7.25664 198.41634,6.04764 198.41634,5.26464 C198.41634,3.77064 198.84354,2.56104 199.83954,1.49424 C201.04914,0.28464 202.40034,0.00024 203.96574,0.00024 C204.96174,0.00024 206.50254,0.16344 208.20714,1.15764 C208.62354,1.40064 208.73814,1.95204 208.47294,2.35464 L207.52854,3.78864 Z" id="Fill-30"></path>
                </g>
            </g>
        </g>
    </g>
</svg>